# Blender v2.67 (sub 0) OBJ File: 'chassisFan13.blend'
# www.blender.org
o fanAssembly_LP.001_Cube.001
v 0.124331 0.238526 -0.202949
v 0.082349 0.238526 -0.223305
v 0.037202 0.238526 -0.235080
v -0.009375 0.238526 -0.237821
v -0.055591 0.238526 -0.231422
v -0.099671 0.238526 -0.216130
v -0.139921 0.238526 -0.192532
v 0.765035 0.238526 -0.850147
v 0.774576 0.238526 -0.837018
v 0.783321 0.238526 -0.824986
v 0.794441 0.238526 -0.809684
v 0.806009 0.238526 -0.793766
v 0.192532 0.238526 -0.139921
v 0.161536 0.238526 -0.174794
v 0.000000 0.238526 -0.000000
v 0.082333 0.208965 -0.223262
v 0.076878 0.208965 -0.263875
v 0.765035 0.208965 -0.850147
v 0.806009 0.208965 -0.793766
v 0.192495 0.208965 -0.139894
v 0.161504 0.208965 -0.174760
v 0.202949 0.238526 0.124331
v 0.223305 0.238526 0.082349
v 0.235080 0.238526 0.037202
v 0.237821 0.238526 -0.009375
v 0.231422 0.238526 -0.055591
v 0.216130 0.238526 -0.099671
v 0.850146 0.238526 0.765035
v 0.837018 0.238526 0.774577
v 0.824985 0.238526 0.783321
v 0.809683 0.238526 0.794442
v 0.793766 0.238526 0.806009
v 0.139921 0.238526 0.192532
v 0.174793 0.238526 0.161536
v 0.223262 0.208965 0.082333
v 0.263874 0.208965 0.076878
v 0.850146 0.208965 0.765035
v 0.793766 0.208965 0.806009
v 0.139894 0.208965 0.192495
v 0.174760 0.208965 0.161504
v -0.124331 0.238526 0.202949
v -0.082349 0.238526 0.223305
v -0.037202 0.238526 0.235080
v 0.009375 0.238526 0.237820
v 0.055591 0.238526 0.231422
v 0.099671 0.238526 0.216130
v -0.765036 0.238526 0.850146
v -0.774577 0.238526 0.837017
v -0.783322 0.238526 0.824985
v -0.794442 0.238526 0.809683
v -0.806010 0.238526 0.793765
v -0.192532 0.238526 0.139921
v -0.161536 0.238526 0.174793
v -0.082333 0.208965 0.223262
v -0.076878 0.208965 0.263874
v -0.765036 0.208965 0.850146
v -0.806010 0.208965 0.793765
v -0.192495 0.208965 0.139894
v -0.161504 0.208965 0.174760
v -0.202949 0.238526 -0.124331
v -0.223305 0.238526 -0.082349
v -0.235080 0.238526 -0.037202
v -0.237821 0.238526 0.009374
v -0.231422 0.238526 0.055591
v -0.216130 0.238526 0.099671
v -0.850145 0.238526 -0.765036
v -0.837017 0.238526 -0.774578
v -0.824984 0.238526 -0.783322
v -0.809683 0.238526 -0.794443
v -0.793765 0.238526 -0.806010
v -0.174794 0.238526 -0.161536
v -0.223262 0.208965 -0.082333
v -0.263874 0.208965 -0.076879
v -0.850145 0.208965 -0.765036
v -0.793765 0.208965 -0.806011
v -0.139894 0.208965 -0.192495
v -0.174760 0.208965 -0.161505
v 0.202910 0.208965 0.124307
v -0.124307 0.208965 0.202910
v -0.202910 0.208965 -0.124307
v 0.124307 0.208965 -0.202910
vt 0.120339 0.774040
vt 0.097031 0.784592
vt 0.016564 0.670227
vt 0.147291 0.669951
vt 0.145450 0.695722
vt 0.065555 0.792930
vt 0.138087 0.719653
vt 0.016968 0.802071
vt 0.128076 0.740193
vt 0.136246 0.761532
vt 0.635164 0.761532
vt 0.016766 0.801651
vt 0.635164 0.792930
vt 0.635164 0.784592
vt 0.155253 0.749111
vt 0.168369 0.672398
vt 0.543401 0.619747
vt 0.527493 0.632256
vt 0.028576 0.632256
vt 0.598185 0.600857
vt 0.566709 0.609195
vt 0.028576 0.600857
vt 0.028576 0.619747
vt 0.535664 0.653595
vt 0.508487 0.644677
vt 0.518289 0.698065
vt 0.516448 0.723836
vt 0.495371 0.721389
vt 0.028576 0.644677
vt 0.543401 0.348108
vt 0.527493 0.360616
vt 0.028576 0.348108
vt 0.598185 0.329218
vt 0.566709 0.337556
vt 0.028576 0.329218
vt 0.535664 0.381955
vt 0.516502 0.385206
vt 0.518289 0.426426
vt 0.516449 0.452197
vt 0.499420 0.426053
vt 0.028576 0.360616
vt 0.028576 0.373037
vt 0.116964 0.514211
vt 0.132872 0.501703
vt 0.631790 0.514211
vt 0.062181 0.533101
vt 0.093656 0.524763
vt 0.631790 0.524763
vt 0.124701 0.480363
vt 0.143863 0.477112
vt 0.631790 0.501703
vt 0.151878 0.489281
vt 0.647176 0.723561
vt 0.525653 0.674134
vt 0.646771 0.591716
vt 0.646974 0.592137
vt 0.028576 0.592137
vt 0.028576 0.579869
vt 0.647176 0.451921
vt 0.525653 0.402495
vt 0.646771 0.320076
vt 0.646974 0.320497
vt 0.028576 0.320497
vt 0.028576 0.308230
vt 0.013189 0.410398
vt 0.142076 0.435893
vt 0.134712 0.459824
vt 0.013594 0.542242
vt 0.013391 0.541822
vt 0.631790 0.533101
vt 0.631790 0.541822
vt 0.013270 0.554089
vt 0.635164 0.801651
vt 0.016644 0.813918
vt 0.143917 0.410122
vt 0.160945 0.436266
vt 0.164319 0.696095
vt 0.156524 0.719849
vt 0.499420 0.697693
vt 0.507215 0.673939
vt 0.507215 0.402299
vt 0.153150 0.460020
vt 0.635164 0.774040
vt 0.147237 0.736942
vt 0.635164 0.749111
vt 0.028576 0.609195
vt 0.516502 0.656846
vt 0.028576 0.337556
vt 0.508487 0.373037
vt 0.495371 0.449750
vt 0.631790 0.489282
vt 0.647095 0.579869
vt 0.647095 0.308230
vt 0.631790 0.554089
vt 0.635164 0.813918
vt 0.164995 0.412569
vn 0.000000 1.000000 0.000000
vn 0.559679 0.695669 -0.450301
vn 0.494369 0.685110 -0.534928
vn 0.380505 0.685110 -0.621113
vn -0.450301 0.695639 -0.559679
vn 0.371105 0.802637 -0.466903
vn 0.076327 0.996765 -0.024812
vn 0.415693 0.707083 0.571978
vn 0.811151 0.249062 0.529099
vn 0.779107 -0.001526 -0.626850
vn 0.024812 0.996765 0.076327
vn -0.572008 0.707083 0.415662
vn 0.000000 0.999969 0.000000
vn 0.466903 0.802637 0.371105
vn -0.529069 0.249123 0.811151
vn 0.534928 0.685110 0.494369
vn 0.450301 0.695669 0.559679
vn 0.626850 -0.001526 0.779107
vn -0.808954 0.000000 0.587848
vn -0.144536 0.989105 0.026887
vn -0.252022 0.685110 0.683401
vn -0.520615 0.325327 0.789361
vn -0.494369 0.685110 0.534928
vn -0.559679 0.695639 0.450301
vn -0.678701 -0.001526 0.734397
vn -0.415662 0.707083 -0.572008
vn -0.587848 0.000000 -0.808954
vn -0.026887 0.989105 -0.144505
vn -0.683401 0.685110 -0.252022
vn -0.789361 0.325327 -0.520615
vn 0.571978 0.707083 -0.415693
vn 0.647359 0.306192 -0.697958
vn 0.621113 0.685110 0.380505
vn 0.572008 0.707114 -0.415662
vn 0.808954 0.000000 -0.587848
vn -0.380505 0.685110 0.621113
vn 0.415662 0.707114 0.572008
vn 0.587848 0.000000 0.808954
vn -0.534928 0.685110 -0.494369
vn -0.621113 0.685110 -0.380505
vn -0.571978 0.707083 0.415693
vn -0.779107 -0.001526 0.626850
vn -0.415693 0.707083 -0.571978
vn -0.626850 -0.001526 -0.779107
vn -0.734397 -0.001556 -0.678701
vn 0.678701 -0.001526 -0.734397
vn 0.522385 -0.001526 -0.852687
vn 0.734397 -0.001526 0.678701
vn 0.852687 -0.001526 0.522385
vn -0.522385 -0.001526 0.852687
vn -0.852687 -0.001526 -0.522385
vn 0.809961 -0.001282 -0.586444
vn 0.587878 0.000000 0.808924
vn 0.586444 -0.001282 0.809961
vn -0.697958 0.306223 -0.647328
vn 0.808924 0.000000 -0.587878
vn -0.808924 0.000000 0.587878
vn -0.587878 0.000000 -0.808924
s 1
f 4/1/1 5/2/1 15/3/1
f 13/4/2 14/5/3 15/3/1
f 5/2/1 6/6/1 15/3/1
f 14/5/3 1/7/4 15/3/1
f 6/6/1 7/8/5 15/3/1
f 1/7/4 2/9/6 15/3/1
f 2/9/6 3/10/7 15/3/1
f 4/1/1 3/10/7 12/11/8
f 7/12/5 6/6/1 9/13/1
f 3/10/7 4/1/1 15/3/1
f 6/6/1 5/2/1 10/14/1
f 5/2/1 4/1/1 10/14/1
f 3/10/7 2/9/6 17/15/9
f 14/5/3 13/4/2 20/16/10
f 12/11/8 3/10/7 17/15/9
f 25/17/1 24/18/11 32/19/12
f 27/20/1 26/21/13 29/22/1
f 26/21/13 25/17/1 31/23/13
f 24/18/11 23/24/14 36/25/15
f 34/26/16 33/27/17 39/28/18
f 32/19/12 24/18/11 38/29/19
f 44/30/1 43/31/20 50/32/1
f 46/33/13 45/34/1 48/35/1
f 45/34/1 44/30/1 50/32/1
f 43/31/20 42/36/21 54/37/22
f 53/38/23 52/39/24 59/40/25
f 51/41/26 43/31/20 57/42/27
f 63/43/1 62/44/28 69/45/13
f 65/46/13 64/47/13 68/48/1
f 64/47/13 63/43/1 68/48/1
f 62/44/28 61/49/29 72/50/30
f 70/51/31 62/44/28 73/52/32
f 25/17/1 26/21/13 15/53/1
f 33/27/17 34/26/16 15/53/1
f 26/21/13 27/20/1 15/53/1
f 34/26/16 22/54/33 15/53/1
f 27/20/1 13/55/2 15/53/1
f 22/54/33 23/24/14 15/53/1
f 23/24/14 24/18/11 15/53/1
f 13/56/2 27/20/1 28/57/34
f 24/18/11 25/17/1 15/53/1
f 13/56/2 28/57/34 37/58/35
f 44/30/1 45/34/1 15/59/1
f 52/39/24 53/38/23 15/59/1
f 45/34/1 46/33/13 15/59/1
f 53/38/23 41/60/36 15/59/1
f 46/33/13 33/61/17 15/59/1
f 41/60/36 42/36/21 15/59/1
f 42/36/21 43/31/20 15/59/1
f 33/62/17 46/33/13 47/63/37
f 43/31/20 44/30/1 15/59/1
f 33/62/17 47/63/37 56/64/38
f 63/43/1 64/47/13 15/65/1
f 64/47/13 65/46/13 15/65/1
f 71/66/39 60/67/40 15/65/1
f 65/46/13 52/68/24 15/65/1
f 60/67/40 61/49/29 15/65/1
f 61/49/29 62/44/28 15/65/1
f 52/69/24 65/46/13 67/70/1
f 62/44/28 63/43/1 15/65/1
f 52/69/24 66/71/41 58/72/42
f 7/12/5 8/73/43 76/74/44
f 71/66/39 7/75/5 77/76/45
f 7/75/5 71/66/39 15/65/1
f 1/7/4 14/5/3 21/77/46
f 2/9/6 1/7/4 81/78/47
f 22/54/33 34/26/16 40/79/48
f 23/24/14 22/54/33 78/80/49
f 41/60/36 53/38/23 79/81/50
f 42/36/21 41/60/36 54/37/22
f 60/67/40 71/66/39 80/82/51
f 61/49/29 60/67/40 72/50/30
f 11/83/1 4/1/1 12/11/8
f 8/73/43 7/12/5 9/13/1
f 9/13/1 6/6/1 10/14/1
f 4/1/1 11/83/1 10/14/1
f 2/9/6 16/84/52 17/15/9
f 21/77/46 14/5/3 20/16/10
f 19/85/53 12/11/8 17/15/9
f 31/23/13 25/17/1 32/19/12
f 26/21/13 30/86/1 29/22/1
f 30/86/1 26/21/13 31/23/13
f 23/24/14 35/87/54 36/25/15
f 40/79/48 34/26/16 39/28/18
f 24/18/11 36/25/15 38/29/19
f 43/31/20 51/41/26 50/32/1
f 45/34/1 49/88/1 48/35/1
f 49/88/1 45/34/1 50/32/1
f 55/89/55 43/31/20 54/37/22
f 52/39/24 58/90/42 59/40/25
f 43/31/20 55/89/55 57/42/27
f 62/44/28 70/51/31 69/45/13
f 67/70/1 65/46/13 68/48/1
f 63/43/1 69/45/13 68/48/1
f 73/52/32 62/44/28 72/50/30
f 75/91/56 70/51/31 73/52/32
f 27/20/1 29/22/1 28/57/34
f 20/92/10 13/56/2 37/58/35
f 46/33/13 48/35/1 47/63/37
f 39/93/18 33/62/17 56/64/38
f 66/71/41 52/69/24 67/70/1
f 66/71/41 74/94/57 58/72/42
f 8/73/43 18/95/58 76/74/44
f 7/75/5 76/96/44 77/76/45
f 81/78/47 1/7/4 21/77/46
f 16/84/52 2/9/6 81/78/47
f 78/80/49 22/54/33 40/79/48
f 35/87/54 23/24/14 78/80/49
f 53/38/23 59/40/25 79/81/50
f 41/60/36 79/81/50 54/37/22
f 71/66/39 77/76/45 80/82/51
f 60/67/40 80/82/51 72/50/30
