# Blender v2.67 (sub 0) OBJ File: '57.blend'
# www.blender.org
o Plane.001
v 0.000000 0.350000 0.000000
v 0.000000 -0.800000 0.000000
v 0.600000 0.350000 0.000000
v 1.000000 0.000000 0.000000
v 0.300000 0.350000 0.519615
v 0.500000 0.000000 0.866025
v -0.300000 0.350000 0.519615
v -0.500000 0.000000 0.866026
v -0.600000 0.350000 0.000000
v -1.000000 0.000000 0.000000
v -0.300000 0.350000 -0.519615
v -0.500000 0.000000 -0.866026
v 0.300000 0.350000 -0.519615
v 0.500000 0.000000 -0.866025
vt 0.561925 0.634007
vt 0.293769 0.704011
vt 0.366135 0.435754
vt 0.488128 0.902693
vt 0.218541 0.973126
vt 0.022751 0.774873
vt 0.096548 0.506187
vt 0.851654 0.273094
vt 0.966951 0.236053
vt 0.903025 0.531979
vt 0.717065 0.151099
vt 0.742635 0.032729
vt 0.544119 0.206660
vt 0.454393 0.125330
vt 0.390467 0.421256
vt 0.505764 0.384215
vt 0.614783 0.624580
vt 0.640353 0.506210
vt 0.813299 0.450649
vt 0.678709 0.328654
vn 0.587642 -0.734553 -0.339276
vn 0.587642 -0.734553 0.339276
vn 0.000000 -0.734553 0.678551
vn -0.587643 -0.734553 0.339276
vn -0.587643 -0.734553 -0.339276
vn 0.000000 -0.734553 -0.678551
vn 0.615521 0.703452 -0.355371
vn 0.615521 0.703453 0.355371
vn 0.000000 0.703453 0.710742
vn -0.615521 0.703453 0.355371
vn -0.615521 0.703453 -0.355371
vn 0.000000 0.703453 -0.710742
vn 0.000000 1.000000 -0.000000
vn 0.615521 0.703453 -0.355371
s off
f 4/1/1 2/2/1 14/3/1
f 2/2/2 4/1/2 6/4/2
f 2/2/3 6/4/3 8/5/3
f 2/2/4 8/5/4 10/6/4
f 2/2/5 10/6/5 12/7/5
f 2/2/6 12/7/6 14/3/6
f 3/8/7 4/9/7 14/10/7
f 4/9/8 3/8/8 5/11/8
f 6/12/9 5/11/9 7/13/9
f 8/14/10 7/13/10 10/15/10
f 10/15/11 9/16/11 12/17/11
f 12/17/12 11/18/12 13/19/12
f 1/20/13 3/8/13 13/19/13
f 3/8/13 1/20/13 5/11/13
f 5/11/13 1/20/13 7/13/13
f 7/13/13 1/20/13 9/16/13
f 9/16/13 1/20/13 11/18/13
f 11/18/13 1/20/13 13/19/13
f 13/19/14 3/8/14 14/10/14
f 6/12/8 4/9/8 5/11/8
f 8/14/9 6/12/9 7/13/9
f 7/13/10 9/16/10 10/15/10
f 9/16/11 11/18/11 12/17/11
f 14/10/12 12/17/12 13/19/12
